HIERARCHY
ROOT Pelvis
{
	OFFSET -0.217368 -24.078917 2.858379
	CHANNELS 6 Xposition Yposition Zposition Zrotation Yrotation Xrotation 
	JOINT Left_hip
	{
		OFFSET 5.858135 -8.228005 -1.766408
		CHANNELS 3 Zrotation Yrotation Xrotation
		JOINT Left_knee
		{
			OFFSET 4.345143 -38.646942 0.803700
			CHANNELS 3 Zrotation Yrotation Xrotation
			JOINT Left_ankle
			{
				OFFSET -1.479033 -42.687447 -3.742800
				CHANNELS 3 Zrotation Yrotation Xrotation
				JOINT Left_foot
				{
					OFFSET 4.105436 -6.028605 12.204244
					CHANNELS 3 Zrotation Yrotation Xrotation
					End Site
					{
						OFFSET 0.000000 0.000000 0.000000
					}
				}
			}
		}
	}
	JOINT Right_hip
	{
		OFFSET -6.030973 -9.051328 -1.354253
		CHANNELS 3 Zrotation Yrotation Xrotation
		JOINT Right_knee
		{
			OFFSET -4.325663 -38.368790 -0.484304
			CHANNELS 3 Zrotation Yrotation Xrotation
			JOINT Right_ankle
			{
				OFFSET 1.905555 -42.004566 -3.456167
				CHANNELS 3 Zrotation Yrotation Xrotation
				JOINT Right_foot
				{
					OFFSET -3.483987 -6.210554 13.032330
					CHANNELS 3 Zrotation Yrotation Xrotation
					End Site
					{
						OFFSET 0.000000 0.000000 0.000000
					}
				}
			}
		}
	}
	JOINT Spine1
	{
		OFFSET 0.443945 12.440353 -3.838522
		CHANNELS 3 Zrotation Yrotation Xrotation
		JOINT Spine2
		{
			OFFSET 0.448844 13.795640 2.682033
			CHANNELS 3 Zrotation Yrotation Xrotation
			JOINT Spine3
			{
				OFFSET -0.226460 5.603239 0.285504
				CHANNELS 3 Zrotation Yrotation Xrotation
				JOINT Neck
				{
					OFFSET -1.339018 21.163553 -3.346758
					CHANNELS 3 Zrotation Yrotation Xrotation
					JOINT Head
					{
						OFFSET 1.011321 8.893734 5.040987
						CHANNELS 3 Zrotation Yrotation Xrotation
						End Site
						{
							OFFSET 0.000000 0.000000 0.000000
						}
					}
				}
				JOINT Left_collar
				{
					OFFSET 7.170247 11.399971 -1.889817
					CHANNELS 3 Zrotation Yrotation Xrotation
					JOINT Left_shoulder
					{
						OFFSET 12.292140 4.520507 -1.904600
						CHANNELS 3 Zrotation Yrotation Xrotation
						JOINT Left_elbow
						{
							OFFSET 25.533188 -1.564902 -2.294648
							CHANNELS 3 Zrotation Yrotation Xrotation
							JOINT Left_wrist
							{
								OFFSET 26.570929 1.269810 -0.737473
								CHANNELS 3 Zrotation Yrotation Xrotation
								JOINT Left_palm
								{
									OFFSET 8.669054 -1.063602 -1.559429
									CHANNELS 3 Zrotation Yrotation Xrotation
									End Site
									{
										OFFSET 0.000000 0.000000 0.000000
									}
								}
							}
						}
					}
				}
				JOINT Right_collar
				{
					OFFSET -8.295364 11.247234 -2.370738
					CHANNELS 3 Zrotation Yrotation Xrotation
					JOINT Right_shoulder
					{
						OFFSET -11.322830 4.685326 -0.847207
						CHANNELS 3 Zrotation Yrotation Xrotation
						JOINT Right_elbow
						{
							OFFSET -26.012751 -1.436928 -3.126872
							CHANNELS 3 Zrotation Yrotation Xrotation
							JOINT Right_wrist
							{
								OFFSET -26.910841 0.679372 -0.602677
								CHANNELS 3 Zrotation Yrotation Xrotation
								JOINT Right_palm
								{
									OFFSET -8.875370 -0.865157 -1.010708
									CHANNELS 3 Zrotation Yrotation Xrotation
									End Site
									{
										OFFSET 0.000000 0.000000 0.000000
									}
								}
							}
						}
					}
				}
			}
		}
	}
}
MOTION
Frames: 12
Frame Time: 0.016667
-21.936996 71.979538 -16.468740 3.074097 5.871153 1.691793 6.262574 -0.419793 -9.433925 -6.382014 1.268660 24.604431 9.390705 19.337874 5.977751 0.000000 0.000000 0.000000 -5.488860 0.531527 -7.792375 1.189439 -0.066833 2.034004 4.248862 3.313226 11.918895 0.000000 0.000000 0.000000 8.080269 -1.055575 8.840971 3.087623 -0.428704 -18.309377 -3.079830 -2.513196 23.308411 10.779383 -5.740134 -13.176051 0.000000 0.000000 0.000000 -32.841038 -11.985816 4.794629 -41.466609 -0.835812 -4.241943 0.252351 -35.313894 1.239993 0.000000 0.000000 0.000000 0.000000 0.000000 0.000000 36.293433 6.905044 1.192974 27.667821 7.420721 -0.932947 -9.964475 30.876826 -1.578082 0.000000 0.000000 0.000000 0.000000 0.000000 0.000000 
-22.503798 71.731255 -18.430143 2.575690 7.581648 0.968723 6.003633 -0.304255 -5.993609 -6.744692 1.526252 29.393295 7.788150 16.459662 4.494144 0.000000 0.000000 0.000000 -3.899575 0.619571 -8.039233 0.811495 -0.000978 2.614464 3.111409 1.383732 11.246654 0.000000 0.000000 0.000000 8.132731 -0.965329 8.000927 3.114362 -0.471324 -17.675912 -3.428359 -2.954985 23.228579 9.527162 -5.289633 -11.366557 0.000000 0.000000 0.000000 -32.883589 -11.917849 4.746885 -41.056867 -0.469181 -4.313042 1.021766 -34.941567 0.987033 0.000000 0.000000 0.000000 0.000000 0.000000 0.000000 36.606655 6.149566 0.604305 28.403125 7.292922 -0.973188 -11.094964 30.805870 -1.863158 0.000000 0.000000 0.000000 0.000000 0.000000 0.000000 
-22.869581 71.354660 -20.560820 2.295502 9.589969 0.266915 6.127211 -0.120958 -1.266761 -6.387014 1.413225 30.342167 5.394631 12.039531 4.043046 0.000000 0.000000 0.000000 -3.617530 0.691357 -8.893042 0.736912 0.052821 3.937451 2.079785 -0.505699 10.871585 0.000000 0.000000 0.000000 8.286127 -0.898985 7.313037 2.185439 -0.210385 -17.239540 -3.229184 -3.674255 22.954411 10.503118 -5.752145 -12.233360 0.000000 0.000000 0.000000 -32.661164 -12.025669 4.818514 -40.578681 -1.120108 -4.057391 0.353122 -34.098498 1.164127 0.000000 0.000000 0.000000 0.000000 0.000000 0.000000 37.360222 5.276252 -0.107132 28.328031 6.961946 -1.037249 -10.902075 30.207299 -1.771691 0.000000 0.000000 0.000000 0.000000 0.000000 0.000000 
-23.084864 70.910240 -22.984583 2.253982 12.216059 1.109713 5.983193 0.048414 3.075442 -6.199162 1.292511 28.328255 3.391695 9.144364 7.469649 0.000000 0.000000 0.000000 -4.428011 0.747492 -10.531844 2.563248 -0.187299 4.948324 -0.054827 -4.458907 10.076385 0.000000 0.000000 0.000000 7.829341 -0.719288 5.981044 1.827510 -0.094452 -17.385225 -3.578415 -4.096374 23.132956 11.762666 -6.782975 -11.197723 0.000000 0.000000 0.000000 -32.742364 -12.843766 5.407943 -37.993517 -1.824451 -3.584830 -1.719310 -33.838137 1.777064 0.000000 0.000000 0.000000 0.000000 0.000000 0.000000 38.161730 4.515699 -0.751337 27.722842 7.265557 -0.963994 -10.202695 28.359326 -1.479777 0.000000 0.000000 0.000000 0.000000 0.000000 0.000000 
-23.187817 70.478340 -25.760614 1.490885 15.127501 1.706026 6.167238 0.173305 6.599880 -4.205015 0.537496 24.568134 1.931752 7.305014 10.114381 0.000000 0.000000 0.000000 -4.406056 0.896013 -12.913190 4.147212 -0.421901 5.880026 -1.739415 -8.036521 10.948891 0.000000 0.000000 0.000000 7.113524 -0.556353 4.828145 2.373854 -0.222349 -18.198374 -4.181332 -5.443175 23.558583 10.878930 -6.196993 -11.233164 0.000000 0.000000 0.000000 -32.910349 -12.459037 5.136956 -37.362374 -2.131204 -3.437203 -0.667581 -34.219395 1.478655 0.000000 0.000000 0.000000 0.000000 0.000000 0.000000 38.789347 4.839802 -0.541648 28.408413 6.525999 -1.125923 -11.263555 28.311332 -1.723362 0.000000 0.000000 0.000000 0.000000 0.000000 0.000000 
-23.115784 69.893143 -29.060116 0.361057 17.239058 2.269147 5.903594 0.279301 8.795640 -2.224881 -0.023774 17.996226 1.224227 4.920106 6.282547 0.000000 0.000000 0.000000 -4.435404 1.069072 -15.759737 5.300770 -0.609554 6.588338 -3.454522 -11.723221 13.120914 0.000000 0.000000 0.000000 7.068327 -0.468861 4.000364 1.608323 0.011640 -18.355135 -4.396154 -6.702425 23.404978 9.756597 -5.448959 -11.313343 0.000000 0.000000 0.000000 -32.974256 -12.261150 4.996377 -36.045290 -1.915463 -3.371567 -0.928129 -34.805863 1.586377 0.000000 0.000000 0.000000 0.000000 0.000000 0.000000 38.796567 5.103975 -0.333347 30.024750 6.520734 -1.172922 -11.310333 27.202504 -1.653127 0.000000 0.000000 0.000000 0.000000 0.000000 0.000000 
-22.940023 69.298264 -32.793545 0.052881 18.652619 2.945946 4.798403 0.419982 9.645094 -0.449080 -0.333003 12.457911 1.666816 4.678067 3.094235 0.000000 0.000000 0.000000 -5.440698 1.099250 -18.510560 5.959074 -0.727784 7.339297 -4.810599 -14.426553 15.291066 0.000000 0.000000 0.000000 5.714014 -0.442360 4.356176 1.531106 0.063638 -19.092788 -4.639107 -7.090702 23.361334 9.022577 -4.666317 -13.009188 0.000000 0.000000 0.000000 -32.264119 -12.056837 4.830246 -35.514997 -1.699345 -3.377976 -0.648878 -35.098650 1.513403 0.000000 0.000000 0.000000 0.000000 0.000000 0.000000 38.682426 5.391363 -0.098998 30.999210 6.143203 -1.284737 -12.671590 27.426098 -1.975005 0.000000 0.000000 0.000000 0.000000 0.000000 0.000000 
-22.776945 68.772270 -36.781658 -0.404038 19.530992 2.877666 4.334835 0.487278 10.062802 -0.522303 -0.202167 8.691013 2.305048 4.810112 -0.192982 0.000000 0.000000 0.000000 -5.249636 1.189978 -19.672920 5.240287 -0.595080 5.913936 -6.314894 -17.039184 16.331927 0.000000 0.000000 0.000000 4.818738 -0.490695 5.438849 0.678611 0.323020 -19.515325 -4.248059 -7.079163 23.777585 8.912039 -4.101238 -15.852183 0.000000 0.000000 0.000000 -32.356140 -11.124101 4.169712 -34.090772 -2.616349 -3.009567 -0.247669 -34.223082 1.351195 0.000000 0.000000 0.000000 0.000000 0.000000 0.000000 38.494506 5.304056 -0.156156 32.321578 6.691868 -1.198519 -13.879953 28.543230 -2.355544 0.000000 0.000000 0.000000 0.000000 0.000000 0.000000 
-22.602760 68.766930 -40.738003 -0.247690 20.585389 2.242772 3.381948 0.550906 9.548991 -0.438509 -0.155579 6.674172 2.793497 5.262104 -1.846145 0.000000 0.000000 0.000000 -6.037328 1.133461 -20.953618 4.200179 -0.432644 4.972782 -6.708284 -17.862258 20.058098 0.000000 0.000000 0.000000 3.774533 -0.587303 7.533257 0.566873 0.376286 -20.225719 -5.048835 -7.525550 24.687565 8.545264 -3.837117 -16.128616 0.000000 0.000000 0.000000 -32.294126 -11.105124 4.155375 -33.454635 -2.890788 -2.886095 1.409740 -33.496209 0.828763 0.000000 0.000000 0.000000 0.000000 0.000000 0.000000 38.602302 5.774568 0.208264 32.844545 7.579417 -0.999765 -14.082870 28.044079 -2.353694 0.000000 0.000000 0.000000 0.000000 0.000000 0.000000 
-22.488811 69.092796 -44.412430 -1.053373 19.826174 0.759993 3.596881 0.535953 9.642589 -1.381555 0.036445 5.215888 3.098940 5.698754 -2.504129 0.000000 0.000000 0.000000 -5.043361 1.270967 -20.549168 2.523130 -0.226349 2.374634 -6.438320 -17.554318 22.043434 0.000000 0.000000 0.000000 3.668281 -0.805242 10.612038 -0.663113 0.730313 -20.886924 -4.597390 -6.275120 24.401507 7.708157 -3.223737 -16.892439 0.000000 0.000000 0.000000 -32.228400 -10.513798 3.736184 -32.532216 -3.413680 -2.683285 0.883326 -31.766195 0.931479 0.000000 0.000000 0.000000 0.000000 0.000000 0.000000 38.409936 6.314777 0.644307 32.685303 8.307319 -0.822769 -13.695964 26.485311 -2.115703 0.000000 0.000000 0.000000 0.000000 0.000000 0.000000 
-22.463640 69.573753 -47.600796 -1.577658 19.273461 0.070801 3.900040 0.444499 8.564717 -2.689413 0.254245 3.911051 3.215667 6.117884 -2.030801 0.000000 0.000000 0.000000 -3.806631 1.445063 -20.234152 0.112421 0.046230 1.502184 -5.729340 -16.416346 20.715853 0.000000 0.000000 0.000000 1.660209 -0.646279 11.415345 -0.004929 0.544505 -20.602068 -4.591670 -4.390228 24.936416 7.883407 -3.163151 -17.926288 0.000000 0.000000 0.000000 -30.811275 -9.924178 3.322046 -32.933514 -4.156183 -2.536405 2.076086 -29.649986 0.556165 0.000000 0.000000 0.000000 0.000000 0.000000 0.000000 37.363571 5.953736 0.415446 35.455009 9.870743 -0.441282 -14.719549 24.959902 -2.178060 0.000000 0.000000 0.000000 0.000000 0.000000 0.000000 
-22.510153 70.182480 -50.300755 -2.447632 18.266503 -1.131089 4.103401 0.408220 8.232103 -3.496105 0.371514 3.665164 3.449499 6.998717 -0.864538 0.000000 0.000000 0.000000 -3.551325 1.458794 -19.865665 0.507529 0.086346 3.970368 -5.483559 -15.762376 17.389464 0.000000 0.000000 0.000000 0.132377 -0.498271 11.831699 0.024355 0.524246 -20.113768 -3.624011 -3.394958 25.078825 6.965252 -2.528930 -18.703548 0.000000 0.000000 0.000000 -30.101350 -9.290519 2.894033 -32.179116 -4.092622 -2.495791 0.671071 -26.563076 0.822472 0.000000 0.000000 0.000000 0.000000 0.000000 0.000000 35.419304 5.826553 0.421608 37.188304 11.547135 0.038312 -15.880820 23.559726 -2.252920 0.000000 0.000000 0.000000 0.000000 0.000000 0.000000 
